<svg xmlns="http://www.w3.org/2000/svg" xmlns:svg="http://www.w3.org/2000/svg" id="svg2" width="16" height="16" version="1.1" viewBox="0 0 16 16"><metadata id="metadata7"/><g id="layer1" transform="translate(0,-1036.3622)"><g id="g8" transform="matrix(0.00898883,0,0,0.00898883,2.84873,1036.9616)" style="fill:#e0e0e0;fill-opacity:.99607843"><path style="fill:#e0e0e0;fill-opacity:.99607843;stroke:none;stroke-width:5;stroke-miterlimit:10;stroke-opacity:1" id="path6" d="m 347.90625,16.636719 a 32.251043,32.251043 0 0 0 -12.25,2.798828 C 205.88469,77.531491 99.412299,183.61822 41.001953,313.29102 -22.348317,451.80048 -28.265288,613.88282 23.927734,756.76758 72.647329,892.19719 172.02966,1007.4904 298.65234,1075.8125 c 58.00997,31.5205 121.31762,53.0204 186.51172,63.377 -0.002,48.987 -0.19484,98.1365 0.21875,147.4687 a 32.251043,32.251043 0 0 0 0.51367,5.4727 c 18.87811,104.3311 37.75711,208.6614 56.63477,312.9921 a 32.251043,32.251043 0 0 0 63.35156,0.5899 c 20.97874,-104.7586 42.06315,-209.5337 62.98633,-314.3516 a 32.251043,32.251043 0 0 0 0.625,-6.3125 c 8.4e-4,-48.5498 0.003,-97.1 0.004,-145.6504 112.94142,-16.8214 220.92348,-66.2925 305.84961,-143.65817 88.14404,-79.4662 149.14894,-186.66163 174.48434,-302.08984 25.7675,-116.18424 18.7794,-240.2345 -25.416,-352.06836 C 1071.4778,205.24135 966.47079,91.107321 834.92773,27.115234 829.42805,24.407001 824.10868,21.95088 819.05273,19.607422 A 32.251043,32.251043 0 0 0 773.24414,48.865234 V 52 70.470703 a 32.251043,32.251043 0 0 0 17.08594,28.460938 c 96.0021,51.145979 172.95277,138.924249 209.88872,240.824219 a 32.251043,32.251043 0 0 0 0.057,0.15039 c 39.0531,106.08119 35.7505,227.87147 -10.28517,330.97461 a 32.251043,32.251043 0 0 0 -0.0898,0.20312 C 937.26564,791.18147 829.14264,886.53883 703.4668,923.76562 a 32.251043,32.251043 0 0 0 -0.0762,0.0234 c -11.19816,3.34713 -22.50938,6.2295 -33.90429,8.67578 -0.0393,-50.21706 -0.16903,-100.33931 0.10156,-150.23828 0.86271,-0.9191 2.16446,-1.94384 4.36719,-3.27734 4.48441,-2.7148 12.01568,-5.42153 19.80273,-7.16602 7.58488,-1.65065 15.16509,-2.60516 22.5586,-2.77343 a 32.251043,32.251043 0 0 0 30.64062,-39.69141 c 2.24778,9.46588 0.68077,5.89079 1.03906,0.11719 0.17915,-2.88681 0.72749,-6.86388 -1.11718,-14.20313 -1.84468,-7.33925 -10.07914,-20.50769 -22.20508,-24.94922 a 32.251043,32.251043 0 0 0 -11.0918,-1.96679 H 439 a 32.251043,32.251043 0 0 0 -31.40234,39.58203 c -2.13044,-9.10803 -0.65038,-5.75562 -1.00782,-0.0645 -0.17902,2.85053 -0.68774,6.79348 1.02344,13.91016 1.71118,7.11668 9.00286,19.79227 20.7168,24.76758 a 32.251043,32.251043 0 0 0 10.6582,2.50781 c 20.32647,1.23139 36.93313,5.44255 46.25977,13.48242 a 32.251043,32.251043 0 0 0 -0.0762,1.9375 V 931.33789 C 384.2764,906.36086 293.26933,841.91584 228.66602,758.73438 l -0.0117,-0.0156 C 174.92035,689.43588 137.4999,606.28431 130.23242,520.66211 122.92233,416.31754 155.17118,309.12943 218.16797,225.25977 a 32.251043,32.251043 0 0 0 0.0606,-0.082 c 38.7059,-51.87653 89.03359,-95.47481 145.96484,-126.371089 a 32.251043,32.251043 0 0 0 16.86719,-28.308594 c 0.008,-7.202903 0.0143,-14.404177 0.0195,-21.605469 A 32.251043,32.251043 0 0 0 347.90625,16.636719 Z M 484.59961,781.89453 c 0.6695,0.62405 0.56402,0.47412 0.65039,0.54102 a 32.251043,32.251043 0 0 0 0,0.0449 z"/></g></g></svg>